# xmcd
#
# Track frame offsets:
# 151
# 22701
# 46521
# 70397
# 91063
# 118248
# 139799
# 162917
# 181249
# 208174
#
# Disc length: 3141 seconds
#
#
# Revision: 3
# Processed by: cddbd v1.5.2PL0 Copyright (c) Steve Scherf et al.
# Submitted via: FreeRIP 2.941 
#
DISCID=7e0c430a
DTITLE=Mayall, John - Chicago Line
DYEAR=1987
DGENRE=Blues
TTITLE0=Chicago Line
TTITLE1=Gimme One More Day
TTITLE2=One Life To Live
TTITLE3=The Last Time
TTITLE4=Dream About The Blues
TTITLE5=Fascinatin' Lover
TTITLE6=Cold Blooded Mama
TTITLE7=The Dirty Dozens
TTITLE8=Tears Came Rollin' Down
TTITLE9=Life In The Jungle
EXTD=YEAR: 1988
EXTT0=
EXTT1=
EXTT2=
EXTT3=
EXTT4=
EXTT5=
EXTT6=
EXTT7=
EXTT8=
EXTT9=
PLAYORDER=
